<svg width="900" height="675" viewBox="0 0 900 675" fill="none" xmlns="http://www.w3.org/2000/svg">
  <defs>
    <linearGradient id="d-bg" x1="0" y1="0" x2="900" y2="675" gradientUnits="userSpaceOnUse">
      <stop stop-color="#0B1324"/>
      <stop offset="1" stop-color="#0F4C6B"/>
    </linearGradient>
  </defs>
  <rect width="900" height="675" rx="28" fill="url(#d-bg)"/>
  <rect x="90" y="90" width="720" height="495" rx="24" fill="#0B2238" stroke="#67E8F9" stroke-opacity="0.25"/>
  <path d="M180 470C260 370 340 370 420 470C500 570 580 570 660 470" stroke="#22D3EE" stroke-width="8" stroke-linecap="round"/>
  <circle cx="180" cy="470" r="18" fill="#A5F3FC"/>
  <circle cx="420" cy="470" r="18" fill="#67E8F9"/>
  <circle cx="660" cy="470" r="18" fill="#22D3EE"/>
  <rect x="170" y="170" width="170" height="130" rx="16" fill="#0E7490" fill-opacity="0.2"/>
  <rect x="365" y="170" width="170" height="130" rx="16" fill="#0E7490" fill-opacity="0.25"/>
  <rect x="560" y="170" width="170" height="130" rx="16" fill="#0E7490" fill-opacity="0.2"/>
  <path d="M255 335V390" stroke="#67E8F9" stroke-opacity="0.4" stroke-width="3"/>
  <path d="M450 335V390" stroke="#67E8F9" stroke-opacity="0.4" stroke-width="3"/>
  <path d="M645 335V390" stroke="#67E8F9" stroke-opacity="0.4" stroke-width="3"/>
</svg>
